<?xml version="1.0" encoding="utf-8"?>
<svg id="Calque_1" x="0px" y="0px" width="23px" height="18px" viewBox="6.189 0.056 25.39 18.716" xmlns="http://www.w3.org/2000/svg">
  <g id="Calque_9" transform="matrix(1, 0, 0, 1, 1.258107, 0)">
    <path fill="#1A171B" stroke="#1A171B" stroke-linecap="square" d="M20.43,14.438c0.045,0.149,0.021,0.315-0.066,0.491&#10;&#9;&#9;c-0.358,0.73-1.797,1.626-3.646,2.199c-2.291,0.711-4.344,0.66-4.584-0.115c-0.24-0.775,1.422-1.979,3.713-2.689&#10;&#9;&#9;C18.136,13.612,20.188,13.664,20.43,14.438z"/>
    <path fill="none" stroke="#1A171B" stroke-linecap="round" d="M20.41,14.403V1.466c0,0,1.664,0.5,2.313,1.333&#10;&#9;&#9;S22.619,6.905,22.349,7.3"/>
  </g>
  <rect x="3.875" y="-0.663" fill="none" width="29" height="20"/>
</svg>